<svg xmlns="http://www.w3.org/2000/svg" width="24" height="24" fill="none" viewBox="0 0 24 24" id="quran-recitation"><path fill="#EFE6D0" d="M11.3505 12.9948L12 14L12.6495 12.9948C13.2371 12.0855 14.3043 11.6066 15.3742 11.7722L15.8441 11.8449C16.4908 11.945 17.1519 11.8107 17.7083 11.4663L18.4615 11L19 12.5L12 16L5 12.5L5.53846 11L6.2917 11.4663C6.84808 11.8107 7.50922 11.945 8.15589 11.8449L8.62582 11.7722C9.6957 11.6066 10.7629 12.0855 11.3505 12.9948Z"></path><path fill="#112210" fill-rule="evenodd" d="M5.37366 10.5279C5.51609 10.4782 5.67337 10.4955 5.80165 10.5749L6.55489 11.0412C7.0099 11.3228 7.55059 11.4327 8.07943 11.3508L8.54936 11.2781C9.81418 11.0823 11.0759 11.6485 11.7705 12.7235L12 13.0787L12.2296 12.7235C12.9242 11.6485 14.1859 11.0823 15.4507 11.2781L15.9206 11.3508C16.4494 11.4327 16.9901 11.3228 17.4451 11.0412L18.1984 10.5749C18.3267 10.4955 18.4839 10.4782 18.6264 10.5279C18.7688 10.5777 18.8812 10.6891 18.9321 10.8311L19.4706 12.3311C19.5639 12.591 19.4289 12.8773 19.1689 12.9706C18.909 13.0639 18.6227 12.9288 18.5294 12.6689L18.1996 11.7502L17.9715 11.8914C17.3137 12.2986 16.5321 12.4574 15.7677 12.339L15.2977 12.2663C14.4228 12.1309 13.55 12.5225 13.0695 13.2662L12.42 14.2714C12.3279 14.4139 12.1697 14.5 12 14.5C11.8303 14.5 11.6722 14.4139 11.5801 14.2714L10.9306 13.2662C10.4501 12.5225 9.57726 12.1309 8.7023 12.2663L8.23237 12.339C7.46789 12.4574 6.68629 12.2986 6.02854 11.8914L5.80041 11.7502L5.47061 12.6689C5.37731 12.9288 5.09099 13.0639 4.83108 12.9706C4.57118 12.8773 4.43612 12.591 4.52942 12.3311L5.06788 10.8311C5.11885 10.6891 5.23122 10.5777 5.37366 10.5279Z" clip-rule="evenodd"></path><path fill="#28AF25" d="M20.904 13.7441L21.5 15L8.71208 21.7319L7.61612 20.1475L20.904 13.7441Z"></path><path fill="#112210" fill-rule="evenodd" d="M21.0625 13.3121C21.2116 13.3626 21.3327 13.4661 21.394 13.5952L21.99 14.8511C22.0898 15.0613 22.0104 15.2925 21.8004 15.403L9.01243 22.1349C8.89302 22.1978 8.7456 22.2135 8.60401 22.1784C8.46243 22.1433 8.33885 22.0604 8.26165 21.9488L7.16568 20.3644C7.00859 20.1373 7.08291 19.856 7.33167 19.7361L20.6196 13.3328C20.7516 13.2692 20.9135 13.2616 21.0625 13.3121ZM20.6595 14.4101L8.35098 20.3415L8.86771 21.0885L20.8383 14.7869L20.6595 14.4101Z" clip-rule="evenodd"></path><path fill="#3CF55A" d="M12 17.9999L3.98591 13.9928C3.47255 13.7362 3.31699 13.0772 3.66137 12.6181C3.92944 12.2606 4.41558 12.1475 4.81393 12.3498L12 15.9999L19.1861 12.3498C19.5844 12.1475 20.0705 12.2606 20.3386 12.6181C20.683 13.0772 20.5274 13.7362 20.0141 13.9928L12 17.9999Z"></path><path fill="#28AF25" d="M3.09598 13.7441L2.5 15L15.2879 21.7319L16.3839 20.1475L3.09598 13.7441Z"></path><path fill="#112210" fill-rule="evenodd" d="M3.26136 12.3181C3.67514 11.7664 4.4255 11.5918 5.04036 11.9041L12 15.4391L18.9596 11.9041C19.5745 11.5918 20.3248 11.7664 20.7386 12.3181C21.2702 13.0268 21.0301 14.0439 20.2377 14.4401L12.2236 18.4471C12.0828 18.5175 11.9171 18.5175 11.7764 18.4471L3.76229 14.4401C2.96992 14.0439 2.72981 13.0268 3.26136 12.3181ZM19.9386 12.9181C19.8162 12.7549 19.5943 12.7033 19.4125 12.7956L12.2264 16.4457C12.0841 16.518 11.9159 16.518 11.7736 16.4457L4.58749 12.7956C4.40565 12.7033 4.18373 12.7549 4.06136 12.9181C3.90416 13.1277 3.97517 13.4285 4.20951 13.5457L12 17.4409L19.7905 13.5457C20.0248 13.4285 20.0958 13.1277 19.9386 12.9181Z" clip-rule="evenodd"></path><path fill="#FBFF22" d="M8.50684 6.5C8.50684 8.433 10.0738 10 12.0068 10C13.6588 10 15.0434 8.85557 15.4111 7.3163C14.9127 8.08867 14.0445 8.6 13.0568 8.6C11.5104 8.6 10.2568 7.3464 10.2568 5.8C10.2568 4.42266 11.2513 3.2776 12.5614 3.04369C12.3808 3.01494 12.1956 3 12.0068 3C10.0738 3 8.50684 4.567 8.50684 6.5Z"></path><path fill="#FBFF22" d="M13.0568 4.39941L13.5094 5.17647L14.3883 5.36679L13.7891 6.03736L13.8797 6.93204L13.0568 6.56941L12.2339 6.93204L12.3245 6.03736L11.7253 5.36679L12.6042 5.17647L13.0568 4.39941Z"></path><path fill="#112210" fill-rule="evenodd" d="M10.2452 4.07143C9.49476 4.61673 9.00684 5.50139 9.00684 6.5C9.00684 8.15685 10.35 9.5 12.0068 9.5C12.5801 9.5 13.116 9.33914 13.5716 9.06006C13.4039 9.08635 13.232 9.1 13.0568 9.1C11.2343 9.1 9.75684 7.62254 9.75684 5.8C9.75684 5.16609 9.9355 4.57407 10.2452 4.07143ZM8.00684 6.5C8.00684 4.29086 9.7977 2.5 12.0068 2.5C12.222 2.5 12.4335 2.51703 12.64 2.54991C12.881 2.58827 13.0591 2.79498 13.0614 3.03899C13.0637 3.283 12.8895 3.49302 12.6493 3.53591C11.5735 3.72798 10.7568 4.66914 10.7568 5.8C10.7568 7.07025 11.7866 8.1 13.0568 8.1C13.8676 8.1 14.5807 7.6809 14.991 7.04517C15.1231 6.84047 15.3836 6.76078 15.6076 6.85652C15.8316 6.95225 15.9541 7.19552 15.8974 7.43248C15.4772 9.19165 13.8954 10.5 12.0068 10.5C9.7977 10.5 8.00684 8.70914 8.00684 6.5Z" clip-rule="evenodd"></path><path fill="#112210" fill-rule="evenodd" d="M13.0568 3.89941C13.2348 3.89941 13.3993 3.99399 13.4889 4.14776L13.8306 4.73443 14.4941 4.87812C14.668 4.91578 14.8088 5.04304 14.8638 5.21228 14.9188 5.38152 14.8797 5.56724 14.7612 5.69994L14.3088 6.2062 14.3772 6.88167C14.3951 7.05872 14.3176 7.23195 14.1736 7.33655 14.0297 7.44114 13.8409 7.46134 13.6781 7.38958L13.0568 7.11581 12.4356 7.38958C12.2727 7.46134 12.084 7.44114 11.94 7.33655 11.7961 7.23195 11.7185 7.05872 11.7365 6.88167L11.8049 6.2062 11.3525 5.69994C11.2339 5.56724 11.1948 5.38152 11.2498 5.21228 11.3048 5.04304 11.4456 4.91578 11.6195 4.87812L12.2831 4.73443 12.6248 4.14776C12.7143 3.99399 12.8789 3.89941 13.0568 3.89941zM13.0568 5.39286L13.0363 5.42812C12.9656 5.54942 12.8473 5.63544 12.7101 5.66514L12.6702 5.67378 12.6974 5.70421C12.7909 5.80889 12.8361 5.94806 12.822 6.08772L12.8179 6.12832 12.8552 6.11187C12.9837 6.05526 13.13 6.05526 13.2585 6.11187L13.2958 6.12832 13.2917 6.08772C13.2775 5.94806 13.3228 5.80889 13.4163 5.70421L13.4435 5.67378 13.4036 5.66514C13.2664 5.63544 13.148 5.54942 13.0774 5.42812L13.0568 5.39286zM2.93747 13.3121C2.78843 13.3626 2.66726 13.4661 2.606 13.5952L2.01002 14.8511C1.91023 15.0613 1.98964 15.2925 2.19965 15.403L14.9876 22.1349C15.107 22.1978 15.2544 22.2135 15.396 22.1784 15.5376 22.1433 15.6611 22.0604 15.7383 21.9488L16.8343 20.3644C16.9914 20.1373 16.9171 19.856 16.6683 19.7361L3.38042 13.3328C3.24843 13.2692 3.08651 13.2616 2.93747 13.3121zM3.34047 14.4101L15.649 20.3415 15.1323 21.0885 3.16167 14.7869 3.34047 14.4101z" clip-rule="evenodd"></path></svg>