<svg xmlns="http://www.w3.org/2000/svg" enable-background="new 0 0 512 512" viewBox="0 0 512 512" id="rub-el-hizb"><path d="M325.933,183.546c-2.528-4.845-6.693-8.666-11.731-10.76c-3.598-1.494-6.602-3.718-8.911-6.521c-2.307,2.812-5.308,5.03-8.906,6.524c-5.035,2.09-9.2,5.912-11.728,10.76c-1.266,2.428,0.562,5.399,3.363,5.399c39.452-0.022,32.145,0,34.549,0C325.355,188.947,327.206,185.991,325.933,183.546z"></path><rect width="149.717" height="21.498" x="175.133" y="337.24"></rect><path d="M314.806 199.611h-18.981v67.157c7.16 4.093 13.527 9.109 18.981 14.83V199.611zM268.35 267.438c-7.732-1.718-14.172-6.014-18.377-11.772-4.046 5.595-10.618 10.078-18.366 11.777-31.287 7.029-53.709 30.927-56.237 59.134h149.243C322.085 298.37 299.66 274.469 268.35 267.438z"></path><path d="M400.713,193.896v-82.554h-82.554c-1.414,0-2.77-0.562-3.77-1.562L256,51.391l-58.39,58.39c-1,1-2.356,1.562-3.77,1.562h-82.554v82.554c0,1.414-0.562,2.77-1.562,3.77l-58.335,58.335l58.335,58.335c1,1,1.562,2.356,1.562,3.77v82.554h82.554c1.414,0,2.77,0.562,3.77,1.562l58.39,58.39l58.39-58.39c1-1,2.356-1.562,3.77-1.562h82.554v-82.554c0-1.414,0.562-2.77,1.562-3.77l58.335-58.335l-58.335-58.335C401.276,196.666,400.713,195.31,400.713,193.896z M335.513,331.909v32.161c0,2.944-2.387,5.332-5.332,5.332h-160.38c-2.944,0-5.332-2.387-5.332-5.332v-32.161c0-35.512,26.658-66.301,64.825-74.874c8.682-1.91,15.365-8.951,15.365-17.505v-10.918c0-2.944,2.387-5.332,5.332-5.332c2.944,0,5.332,2.387,5.332,5.332v10.918c0,8.294,6.313,15.49,15.354,17.502c5.047,1.133,9.876,2.678,14.485,4.547v-62.335c-9.531-1.913-14.329-12.248-9.96-20.624c3.684-7.063,9.752-12.631,17.093-15.68c3.837-1.592,6.176-4.476,7.134-8.479c-9.323-5.561-10.433-18.036-3.154-25.315c2.083-2.083,5.457-2.083,7.539,0c2.083,2.083,2.083,5.457,0,7.539c-5.115,5.128,2.63,13.027,7.823,7.846c2.083-2.083,5.457-2.083,7.539,0c2.083,2.083,2.083,5.457,0,7.539c-2.128,2.128-4.722,3.475-7.452,4.165c1.192,3.068,3.333,5.359,6.567,6.701c7.344,3.051,13.412,8.62,17.096,15.68c4.367,8.378-0.429,18.689-9.919,20.622v96.37C331.897,306.502,335.513,318.881,335.513,331.909z"></path><path d="M505.519,240.593l-62.166-62.167V90.455c0-11.996-9.757-21.753-21.753-21.753h-87.971l-62.22-62.22c-8.53-8.53-22.286-8.53-30.817,0l-62.22,62.22H90.4c-11.996,0-21.753,9.757-21.753,21.753v87.971L6.481,240.593c-8.53,8.53-8.53,22.286,0,30.817l62.167,62.167v87.971c0,11.996,9.757,21.753,21.753,21.753h87.971l62.22,62.22c8.525,8.524,22.286,8.531,30.817,0l62.22-62.22h87.971c11.996,0,21.753-9.757,21.753-21.753v-87.971l62.166-62.167C514.049,262.879,514.049,249.123,505.519,240.593z M471.919,259.771l-60.543,60.543v85.678c0,2.944-2.387,5.332-5.332,5.332h-85.678l-60.598,60.598c-2.083,2.083-5.457,2.083-7.539,0l-60.598-60.598h-85.678c-2.944,0-5.332-2.387-5.332-5.332v-85.678L40.08,259.771c-2.083-2.083-2.083-5.457,0-7.539l60.543-60.543v-85.678c0-2.944,2.387-5.332,5.332-5.332h85.678l60.598-60.598c2.083-2.083,5.457-2.083,7.539,0l60.598,60.598h85.678c2.944,0,5.332,2.387,5.332,5.332v85.678l60.543,60.543C474.002,254.314,474.002,257.688,471.919,259.771z"></path></svg>