<svg xmlns="http://www.w3.org/2000/svg" enable-background="new 0 0 512 512" viewBox="0 0 512 512" id="rub-el-hizb"><path d="M506.048,241.555l-61.186-61.182c-1.311-1.311-1.894-2.707-1.894-4.518V89.3c0-11.247-9.092-20.396-20.267-20.396h-86.552
		c-1.878,0-3.353-0.604-4.651-1.901L270.375,6.016c-3.781-3.878-8.887-6.013-14.375-6.013s-10.594,2.135-14.308,5.946
		l-61.198,61.065c-1.288,1.288-2.763,1.892-4.642,1.892H89.3c-11.175,0-20.267,9.148-20.267,20.396v86.555
		c0,1.811-0.583,3.207-1.892,4.513L5.955,241.555C2.115,245.392,0,250.5,0,255.932c0,5.437,2.115,10.545,5.952,14.382l61.186,61.182
		c1.311,1.311,1.894,2.707,1.894,4.518v86.555c0,11.247,9.092,20.396,20.267,20.396h86.553c1.878,0,3.353,0.604,4.644,1.896
		l61.128,61.123c3.781,3.878,8.887,6.013,14.375,6.013s10.594-2.135,14.315-5.95l61.191-61.191c1.288-1.288,2.763-1.892,4.642-1.892
		H422.7c11.175,0,20.267-9.148,20.267-20.396v-86.555c0-1.811,0.583-3.207,1.892-4.513l61.187-61.186
		c3.84-3.838,5.955-8.946,5.955-14.382C512,250.5,509.885,245.392,506.048,241.555z M496.246,260.513l-61.191,61.191
		c-3.892,3.892-5.948,8.842-5.948,14.31v86.555c0,3.603-2.874,6.54-6.407,6.54h-86.552c-5.558,0-10.554,2.058-14.445,5.95
		l-61.25,61.25c-2.302,2.36-6.543,2.423-8.966-0.063L190.3,435.064c-3.894-3.896-8.889-5.955-14.448-5.955H89.3
		c-3.534,0-6.407-2.937-6.407-6.54v-17.783h38.701c3.826,0,6.93-3.099,6.93-6.928c0-3.829-3.103-6.928-6.93-6.928H82.893v-54.917
		c0-5.468-2.056-10.418-5.95-14.315l-61.191-61.186c-1.221-1.221-1.892-2.847-1.892-4.581c0-1.73,0.671-3.356,1.894-4.576
		l61.191-61.191c3.892-3.892,5.948-8.842,5.948-14.31V89.3c0-3.603,2.874-6.54,6.407-6.54h86.553c5.558,0,10.554-2.058,14.439-5.946
		l61.256-61.123c2.302-2.36,6.536-2.428,8.973,0.068l61.18,61.047c3.894,3.896,8.889,5.955,14.448,5.955H422.7
		c3.534,0,6.407,2.937,6.407,6.54v17.522h-37.656c-3.826,0-6.93,3.099-6.93,6.928c0,3.829,3.103,6.928,6.93,6.928h37.656v55.178
		c0,5.468,2.056,10.418,5.95,14.315l61.191,61.187c1.221,1.221,1.892,2.847,1.892,4.576
		C498.14,257.667,497.469,259.293,496.246,260.513z M383.877,203.592c-0.32-0.297-0.531-0.635-0.531-1.329v-57.79
		c0-8.797-7.097-15.95-15.819-15.95h-57.921c-0.592,0-0.941-0.149-1.376-0.586l-40.926-40.931c-3.02-3.013-7.02-4.671-11.283-4.671
		c-0.052,0-0.104,0-0.155,0c-4.252,0.041-8.207,1.734-11.033,4.671l-41.057,40.926c-0.439,0.441-0.788,0.59-1.381,0.59h-57.921
		c-8.723,0-15.819,7.153-15.819,15.95v57.921c0,0.531-0.191,0.982-0.577,1.365l-41.151,41.025c-6.029,6.252-6.029,16.049,0.097,22.4
		l41.045,40.917c0.405,0.405,0.586,0.869,0.586,1.504v57.79c0,8.797,7.097,15.95,15.819,15.95h57.921
		c0.592,0,0.941,0.149,1.385,0.59l40.955,40.832c2.923,3.031,6.878,4.725,11.13,4.766c0.054,0,0.104,0,0.155,0
		c4.261,0,8.263-1.658,11.288-4.675l40.917-40.922c0.439-0.441,0.788-0.59,1.381-0.59h57.921c8.723,0,15.819-7.153,15.819-15.95
		v-57.79c0-0.464,0.052-0.842,0.716-1.504l41.012-41.016c6.029-6.252,6.029-16.049-0.088-22.391L383.877,203.592z M415.184,257.374
		L374.261,298.3c-3.124,3.126-4.775,7.036-4.775,11.306v57.79c0,1.176-0.86,2.095-1.959,2.095h-57.921
		c-4.27,0-8.135,1.604-11.177,4.639l-40.917,40.922c-0.536,0.536-1.16,0.622-1.495,0.622c-0.356-0.158-0.883-0.09-1.401-0.622
		l-41.048-40.926c-3.038-3.031-6.903-4.635-11.173-4.635h-57.921c-1.099,0-1.959-0.919-1.959-2.095v-21.967h37.392
		c3.826,0,6.93-3.099,6.93-6.928c0-3.829-3.103-6.928-6.93-6.928h-37.392v-21.967c0-4.297-1.651-8.31-4.653-11.315l-40.958-40.827
		c-0.813-0.842-0.813-2.216-0.097-2.959l41.064-40.935c2.993-2.995,4.644-6.964,4.644-11.175v-57.921
		c0-1.176,0.86-2.094,1.959-2.094h57.921c4.27,0,8.135-1.604,11.168-4.635l41.149-41.021c0.412-0.428,0.926-0.522,1.284-0.527
		c0.333-0.014,0.968,0.072,1.511,0.617l40.926,40.931c3.038,3.031,6.903,4.635,11.173,4.635h57.921c1.099,0,1.959,0.919,1.959,2.094
		v21.967h-37.392c-3.826,0-6.93,3.099-6.93,6.928s3.103,6.928,6.93,6.928h37.392v21.967c0,4.437,1.761,8.513,4.775,11.306
		l40.836,40.836C415.91,255.248,415.91,256.622,415.184,257.374z"></path></svg>